<?xml version="1.0" encoding="utf-8"?>
<!-- Generator: Adobe Illustrator 25.2.0, SVG Export Plug-In . SVG Version: 6.00 Build 0)  -->
<svg version="1.1" id="Layer_1" xmlns="http://www.w3.org/2000/svg" xmlns:xlink="http://www.w3.org/1999/xlink" x="0px" y="0px"
	 viewBox="0 0 3000 3000" style="enable-background:new 0 0 3000 3000;" xml:space="preserve">
<style type="text/css">
	.st0{fill:#FFFFFF;}
</style>
<g>
	<path class="st0" d="M1522.82,1496.19c0,207.34,4.12,414.78-1.28,621.98c-4.53,173.84,125.6,305.43,299.45,301.59
		c340.21-7.52,680.71-2.27,1021.09-2.23c66.68,0.01,66.64,0.15,66.49,65.54c-0.08,34.56-2.83,69.41,0.72,103.6
		c4.77,46.08-13.01,59.71-58.21,59.37c-241.88-1.79-483.78-0.94-725.68-0.99c-105.4-0.02-210.94-3.6-316.16,0.67
		c-285.36,11.58-527.71-236.11-514.26-511.6c7.07-144.8-0.64-290.26,2.58-435.32c1.15-51.94-17.72-66.53-66.32-63.35
		c-53.33,3.49-107.21,3.15-160.59,0.08c-41.74-2.4-64.83,8.7-79.72,52c-52.56,152.88-158.88,253-315.88,292.96
		c-288.37,73.39-541.34-152.82-551.04-392.36c-8.54-210.86,75.46-357.92,264.12-449.95c170.41-83.13,420.6-21.37,530.27,136.65
		c27.18,39.17,48.66,82.94,68,126.71c16.56,37.47,36.91,57.22,81.49,53.52c53.2-4.41,107.04-1.02,160.6-1.02
		c64.57,0.01,67.94-3.13,67.97-66.35c0.08-177.97,4.79-356.09-1.19-533.85c-7.75-230.35,139.74-434.59,382.31-503.06
		c14.72-4.16,30.71-5.34,46.11-5.33c373.2,0.23,746.4,1.77,1119.59,0.2c51.96-0.22,68.08,13.03,66.63,66.56
		c-4.21,154.76-1.78,154.85-155.11,154.83c-311.01-0.05-622.01-0.03-933.02-0.22c-184.1-0.11-298.58,113.18-298.87,297
		C1522.57,1074.6,1522.83,1285.4,1522.82,1496.19z M252.42,1541.88c-0.47,186.74,128.7,317.9,313.7,318.52
		c175.46,0.59,319.96-141.26,318.94-313.09c-1.01-169.15-148.22-320.7-318.67-317.68C386.1,1232.83,249.53,1374.19,252.42,1541.88z"
		/>
	<path class="st0" d="M1645.32,1472.71c0-139.96-0.02-279.91,0-419.87c0.02-160.54,93.01-286.78,245.38-332.17
		c12.94-3.85,27.16-4.76,40.79-4.77c240.17-0.08,480.34,1.02,720.5-0.35c45.55-0.26,64.41,15.91,59.06,60.78
		c-1.02,8.52-1.31,17.44,0,25.87c7.41,47.85-12.66,63.37-60.48,62.92c-212.51-2.02-425.04-0.8-637.57-1.09
		c-148.35-0.2-211.35,62.26-211.61,210.96c-0.2,110.58,1.08,221.19-0.85,331.74c-0.7,40.21,12.82,56.32,53.89,54.57
		c56.91-2.42,114.04-1.58,171.02-0.14c33.07,0.83,47.18-12.04,46.56-45.53c-1.19-63.91,1.96-127.97-1.13-191.75
		c-2.04-42.11,14.64-53.34,54.11-53.65c142.98-1.13,142.98-2.2,142.97,140.82c0,29.37,1.49,58.85-0.45,88.1
		c-2.74,41.3,6.69,63.51,56.2,63.21c48.62-0.3,63.22-16.78,61.33-63.89c-3.32-82.81-0.4-165.85-1.69-248.77
		c-0.54-34.71,12.29-50.97,48.36-50.19c176.54,3.83,145.84-25.14,148.29,141.1c0.84,57,0.9,114.06-0.59,171.04
		c-0.91,34.79,12.33,49.11,48.23,50.45c104.71,3.92,104.66,5.09,120.99,107.5c12.7,79.67,11.57,80.83-69.55,80.79
		c-273-0.13-546.01,0.73-819-1.05c-46.32-0.3-61.34,16.45-59.47,60.67c2.49,58.64,0.33,117.47,0.82,176.21
		c1.05,126.48,69.89,195.75,195.32,195.89c215.98,0.25,431.97-0.62,647.94,0.76c21.33,0.14,59.42,10.09,60.88,19.83
		c5.71,38.01,1.57,78-3.65,116.62c-0.78,5.77-26.85,11.52-41.23,11.55c-231.53,0.57-463.19-4.52-694.54,1.75
		c-150.9,4.09-324.96-135.25-321.57-329.69c2.5-143.37,0.49-286.81,0.49-430.22C1645.15,1472.71,1645.24,1472.71,1645.32,1472.71z"
		/>
</g>
</svg>
